<svg width="64" height="64" viewBox="0 0 64 64" fill="none" xmlns="http://www.w3.org/2000/svg">
  <defs>
    <linearGradient id="sunscreenGradient" x1="0%" y1="0%" x2="100%" y2="100%">
      <stop offset="0%" stop-color="#F59E0B"/>
      <stop offset="100%" stop-color="#D97706"/>
    </linearGradient>
  </defs>
  <circle cx="32" cy="18" r="8" fill="url(#sunscreenGradient)" stroke="white" stroke-width="2"/>
  <path d="M26 26C26 26 22 28 22 34V42C22 51.941 30.059 60 40 60H48C51.314 60 54 57.314 54 54V34C54 28 50 26 50 26" fill="url(#sunscreenGradient)" stroke="white" stroke-width="2" stroke-linecap="round"/>
  <path d="M42 36C42 36 44 38 44 42C44 46 42 50 38 50"/>
  <path d="M22 42C22 42 18 44 18 48C18 52 22 54 22 54" stroke="url(#sunscreenGradient)" stroke-width="3" stroke-linecap="round"/>
  <path d="M32 10C32 10 28 14 32 14C36 14 32 10 32 10Z" fill="none" stroke="white" stroke-width="2"/>
  <path d="M24 20C24 16 28 14 32 14" stroke="white" stroke-width="2" fill="none" stroke-linecap="round"/>
  <path d="M40 20C40 16 36 14 32 14" stroke="white" stroke-width="2" fill="none" stroke-linecap="round"/>
  <circle cx="32" cy="36" r="5" fill="white"/>
  <path d="M50 44L54 40" stroke="white" stroke-width="2" stroke-linecap="round"/>
</svg>
