<svg width="64" height="64" viewBox="0 0 64 64" fill="none" xmlns="http://www.w3.org/2000/svg">
  <defs>
    <linearGradient id="tonersGradient" x1="0%" y1="0%" x2="100%" y2="100%">
      <stop offset="0%" stop-color="#14B8A6"/>
      <stop offset="100%" stop-color="#0D9488"/>
    </linearGradient>
  </defs>
  <path d="M22 12C22 12 26 6 32 6C38 6 42 12 42 12" fill="none" stroke="white" stroke-width="3" stroke-linecap="round"/>
  <rect x="18" y="12" width="28" height="36" rx="10" fill="url(#tonersGradient)" stroke="white" stroke-width="2"/>
  <path d="M22 22C22 22 24 18 32 18C40 18 42 22 42 22" fill="none" stroke="white" stroke-width="2.5" stroke-linecap="round"/>
  <path d="M18 28C18 28 24 26 32 26C40 26 46 28 46 28" fill="none" stroke="white" stroke-width="2" stroke-linecap="round"/>
  <path d="M18 36C18 36 24 34 32 34C40 34 46 36 46 36" fill="none" stroke="white" stroke-width="2" stroke-linecap="round"/>
  <path d="M28 44H36V48H28V44Z" fill="white"/>
  <circle cx="32" cy="50" r="3" fill="white"/>
  <path d="M26 32C26 32 28 30 32 30C36 30 38 32 38 32V52H26V32Z" fill="none" stroke="white" stroke-width="1"/>
</svg>
